<svg id="fc91d4d5-e710-4786-96df-8dbdd69a26a7" data-name="Ebene 1" xmlns="http://www.w3.org/2000/svg" xmlns:xlink="http://www.w3.org/1999/xlink" viewBox="0 0 307.86 274.86"><defs><style>.b45ba6ae-d5a5-4d8e-9bfb-01a2e396654f,.e4513693-b131-43bb-a8bf-bbe7c0a43256{fill:none;}.e2b492dc-013f-4414-9261-055d4937b5fe{clip-path:url(#bb0cb192-a77d-4a56-8824-4794227d8e9f);}.b45ba6ae-d5a5-4d8e-9bfb-01a2e396654f{stroke:#fff;stroke-miterlimit:10;stroke-width:3px;}</style><clipPath id="bb0cb192-a77d-4a56-8824-4794227d8e9f"><rect class="e4513693-b131-43bb-a8bf-bbe7c0a43256" x="-56.99" y="5.77" width="451.84" height="262.31"/></clipPath></defs><g class="e2b492dc-013f-4414-9261-055d4937b5fe"><path class="b45ba6ae-d5a5-4d8e-9bfb-01a2e396654f" d="M303.51,227.55l-7.06,39.05m-288-37.76,23.24,23m155.06-223-155,222.32a.15.15,0,0,0,.12.24L296.2,266.59a.16.16,0,0,0,.15-.22L187.06,28.89A.16.16,0,0,0,186.79,28.87ZM154.86,7.36,7.79,228.53a.2.2,0,0,0,.16.31l294.65-1.28a.2.2,0,0,0,.17-.31L155.19,7.36A.2.2,0,0,0,154.86,7.36Zm.18-.25L187,28.65"/></g></svg>