<svg id="e2fba15c-1867-47be-8ea5-1e47bc66eb28" data-name="Logo" xmlns="http://www.w3.org/2000/svg" viewBox="0 0 283.46 283.46"><defs><style>.a45bbecd-4f41-4ae1-ad91-79b2603a7a49{fill:none;stroke:#1d1d1b;stroke-miterlimit:10;stroke-width:7px;}</style></defs><path id="be878b2a-1320-43bb-9fe9-af073b68769c" data-name="Logo Pfad" class="a45bbecd-4f41-4ae1-ad91-79b2603a7a49" d="M263.24,206.16l-5.8,32.09m-236.61-31,19.09,18.91M167.34,42.91,40,225.58a.13.13,0,0,0,.1.2l217.16,12.45a.12.12,0,0,0,.12-.17L167.55,42.93A.12.12,0,0,0,167.34,42.91ZM141.1,25.24,20.25,207a.16.16,0,0,0,.14.25l242.1-1.05a.17.17,0,0,0,.14-.26L141.37,25.24A.16.16,0,0,0,141.1,25.24Zm.14-.21,26.22,17.7"/></svg>