<svg id="f0412afa-f5ff-46c0-a8cf-32eccda5603a" data-name="Logo" xmlns="http://www.w3.org/2000/svg" xmlns:xlink="http://www.w3.org/1999/xlink" viewBox="0 0 283.46 283.46"><defs><style>.ba6471e3-f613-4f0c-8400-79fcd950c464{fill:none;stroke-miterlimit:10;stroke-width:7px;stroke:url(#a4d62fc3-123d-4106-920d-b4b95dd64fd7);}</style><linearGradient id="a4d62fc3-123d-4106-920d-b4b95dd64fd7" x1="61.09" y1="67.37" x2="185.88" y2="283.5" gradientUnits="userSpaceOnUse"><stop offset="0" stop-color="#dab1d3"/><stop offset="0" stop-color="#d84793"/><stop offset="0.36" stop-color="#d6d900"/><stop offset="0.67" stop-color="#1eb7c8"/><stop offset="1" stop-color="#3c55a2"/></linearGradient></defs><path id="ffceab35-e25b-42bd-8037-c2b62b686bc4" data-name="Logo Pfad" class="ba6471e3-f613-4f0c-8400-79fcd950c464" d="M263.24,206.16l-5.8,32.09m-236.61-31,19.09,18.91M167.34,42.91,40,225.58a.13.13,0,0,0,.1.2l217.16,12.45a.12.12,0,0,0,.12-.17L167.55,42.93A.12.12,0,0,0,167.34,42.91ZM141.1,25.24,20.25,207a.16.16,0,0,0,.14.25l242.1-1.05a.17.17,0,0,0,.14-.26L141.37,25.24A.16.16,0,0,0,141.1,25.24Zm.14-.21,26.22,17.7"/></svg>