<svg id="aada7afb-57cb-4a2f-9ce3-d521148cffca" data-name="Logo" xmlns="http://www.w3.org/2000/svg" viewBox="0 0 283.46 283.46"><defs><style>.ef58eb60-643f-42ae-a72e-16eb946c6bd0{fill:none;stroke:#1d1d1b;stroke-miterlimit:10;stroke-width:5px;}</style></defs><path id="f89ef285-ae36-434c-b97c-f4d23d413907" data-name="Logo Pfad" class="ef58eb60-643f-42ae-a72e-16eb946c6bd0" d="M263.24,206.16l-5.8,32.09m-236.61-31,19.09,18.91M167.34,42.91,40,225.58a.13.13,0,0,0,.1.2l217.16,12.45a.12.12,0,0,0,.12-.17L167.55,42.93A.12.12,0,0,0,167.34,42.91ZM141.1,25.24,20.25,207a.16.16,0,0,0,.14.25l242.1-1.05a.17.17,0,0,0,.14-.26L141.37,25.24A.16.16,0,0,0,141.1,25.24Zm.14-.21,26.22,17.7"/></svg>