<svg id="b01a508d-b59d-44f0-8be5-eca2aadd9bc2" data-name="Ebene 1" xmlns="http://www.w3.org/2000/svg" xmlns:xlink="http://www.w3.org/1999/xlink" viewBox="0 0 253.78 224.78"><defs><style>.abae6701-d59a-4183-bf31-f7ca6639fed3,.e9c06423-71c9-47d7-ac4f-57ab05968afa{fill:none;}.e9270bc6-2df5-4c14-bf42-90cfc87d474b{clip-path:url(#ba383851-496a-4a7b-95ff-56b7a97252c7);}.e9c06423-71c9-47d7-ac4f-57ab05968afa{stroke:#000;stroke-miterlimit:10;stroke-width:3px;}</style><clipPath id="ba383851-496a-4a7b-95ff-56b7a97252c7"><rect class="abae6701-d59a-4183-bf31-f7ca6639fed3" x="-47.38" y="5.33" width="370.54" height="215.11"/></clipPath></defs><g class="e9270bc6-2df5-4c14-bf42-90cfc87d474b"><path class="e9c06423-71c9-47d7-ac4f-57ab05968afa" d="M248.26,187.21l-5.79,32m-236.15-31,19.06,18.88M152.54,24.27,25.43,206.59a.13.13,0,0,0,.09.2l216.74,12.43a.13.13,0,0,0,.12-.18L152.76,24.29A.13.13,0,0,0,152.54,24.27ZM126.35,6.64,5.74,188a.16.16,0,0,0,.14.25l241.63-1a.16.16,0,0,0,.14-.25L126.63,6.64A.17.17,0,0,0,126.35,6.64Zm.15-.21,26.17,17.66"/></g></svg>