<svg data-name="Ebene 1" width="268" height="268" xmlns="http://www.w3.org/2000/svg"><defs><linearGradient id="a" x1="45.04" y1="231.72" x2="231.72" y2="45.04" gradientUnits="userSpaceOnUse" gradientTransform="translate(-4.38 -4.38)"><stop offset="0" stop-color="#fff"/><stop offset="0" stop-color="#b8edff"/><stop offset="1" stop-color="#d4b8ff"/></linearGradient></defs><circle cx="134" cy="134" r="132" style="fill:url(#a)"/><path data-name="Logo Pfad" d="m225.19 177.51-4 24.19M42.91 178.5l14.81 14m95.76-137.65L57.62 192.31a.09.09 0 0 0 .07.15l163.41 9.37a.09.09 0 0 0 .09-.13L153.62 54.87a.1.1 0 0 0-.14-.02zm-19.74-13.29L42.8 178.31a.13.13 0 0 0 .11.19l182.18-.8a.12.12 0 0 0 .1-.19L133.95 41.56a.12.12 0 0 0-.21 0zm.11-.16 19.77 13.32" style="fill:none;stroke:#1d1d1b;stroke-miterlimit:10;stroke-width:6px;shape-rendering:geometricPrecision"/></svg>