<svg data-name="Ebene 1" width="266" height="266" xmlns="http://www.w3.org/2000/svg"><defs><linearGradient id="a" x1="45.04" y1="231.72" x2="231.72" y2="45.04" gradientUnits="userSpaceOnUse" gradientTransform="translate(-5.38 -5.38)"><stop offset="0" stop-color="#fff"/><stop offset="0" stop-color="#b8edff"/><stop offset="1" stop-color="#d4b8ff"/></linearGradient></defs><circle cx="133" cy="133" r="132" style="fill:url(#a)"/><path data-name="Logo Pfad" d="m224.19 176.51-4 24.19M41.91 177.5l14.81 14m95.76-137.65L56.62 191.31a.09.09 0 0 0 .07.15l163.41 9.37a.09.09 0 0 0 .09-.13L152.62 53.87a.1.1 0 0 0-.14-.02zm-19.74-13.29L41.8 177.31a.13.13 0 0 0 .11.19l182.18-.8a.12.12 0 0 0 .1-.19L132.95 40.56a.12.12 0 0 0-.21 0zm.11-.16 19.77 13.32" style="fill:none;stroke:#1d1d1b;stroke-miterlimit:10;stroke-width:6px;shape-rendering:geometricPrecision"/></svg>