<svg xmlns="http://www.w3.org/2000/svg" viewBox="0 0 384 512"><path d="M42.9 240.32l99.62 48.61c19.2 9.4 16.2 37.51-4.5 42.71L30.5 358.45a22.79 22.79 0 01-28.21-19.6 197.16 197.16 0 019-85.32 22.8 22.8 0 0131.61-13.21zm44 239.25a199.45 199.45 0 0079.42 32.11A22.78 22.78 0 00192.94 490l3.9-110.82c.7-21.3-25.5-31.91-39.81-16.1l-74.21 82.4a22.82 22.82 0 004.09 34.09zm145.34-109.92l58.81 94a22.93 22.93 0 0034 5.5 198.36 198.36 0 0052.71-67.61A23 23 0 00364.17 370l-105.42-34.26c-20.31-6.5-37.81 15.8-26.51 33.91zm148.33-132.23a197.44 197.44 0 00-50.41-69.31 22.85 22.85 0 00-34 4.4l-62 91.92c-11.9 17.7 4.7 40.61 25.2 34.71L366 268.63a23 23 0 0014.61-31.21zM62.11 30.18a22.86 22.86 0 00-9.9 32l104.12 180.44c11.7 20.2 42.61 11.9 42.61-11.4V22.88a22.67 22.67 0 00-24.5-22.8 320.37 320.37 0 00-112.33 30.1z"/></svg>