<svg id="b96c2bed-161d-4a6a-88f8-007e67c638f7" data-name="Logo" xmlns="http://www.w3.org/2000/svg"
     viewBox="0 0 283.46 283.46">
    <defs>
        <style>
            .bbbce7e6-9f7c-4bc7-b65d-f87c42553021{fill:url(#b5078497-905e-430d-8c08-43e741159356);}.b35d0c34-aac5-4d6b-a247-c101a4f12738{fill:none;stroke:#eee;stroke-miterlimit:10;stroke-width:7px;}
        </style>
        <linearGradient id="b5078497-905e-430d-8c08-43e741159356" x1="75.44" y1="26.92" x2="208.02" y2="256.55"
                        gradientUnits="userSpaceOnUse">
            <stop offset="0" stop-color="#dab1d3"/>
            <stop offset="0.01" stop-color="#d84793"/>
            <stop offset="0.51" stop-color="#d6d900"/>
            <stop offset="0.76" stop-color="#1eb7c8"/>
            <stop offset="1" stop-color="#3c55a2"/>
        </linearGradient>
    </defs>
    <circle class="bbbce7e6-9f7c-4bc7-b65d-f87c42553021" cx="141.73" cy="141.73" r="132.55"/>
    <path id="ad49426f-1fb1-4b02-9f9e-efa82492899f" data-name="Logo Pfad" class="b35d0c34-aac5-4d6b-a247-c101a4f12738"
          d="M233.41,185.29l-4.62,25.54M40.41,186.13l15.2,15.06M157.05,55.31,55.65,200.75a.11.11,0,0,0,.08.16l172.9,9.91a.1.1,0,0,0,.09-.14L157.23,55.32A.1.1,0,0,0,157.05,55.31ZM136.16,41.24,40,185.93a.13.13,0,0,0,.11.2l192.76-.84a.13.13,0,0,0,.1-.2L136.38,41.24A.13.13,0,0,0,136.16,41.24Zm.12-.16,20.87,14.08"/>
</svg>
