<svg id="e29fdc8e-c8d6-4e72-acc1-fd591261e664" data-name="Ebene 1" xmlns="http://www.w3.org/2000/svg"
     viewBox="0 0 276.76 276.76">
    <defs>
        <style>
            .a5f0b606-fcbd-47d7-8b3a-04b81844ceb5{fill:none;stroke-miterlimit:10;stroke-width:7px;stroke:url(#b27e1451-e5a3-4928-96bb-1743ab714dd9);}
        </style>
        <linearGradient id="b27e1451-e5a3-4928-96bb-1743ab714dd9" x1="70.34" y1="258.53" x2="231.06" y2="97.8"
                        gradientUnits="userSpaceOnUse">
            <stop offset="0" stop-color="#fff"/>
            <stop offset="0" stop-color="#ff9aa2"/>
            <stop offset="0.28" stop-color="#dabcd2"/>
            <stop offset="0.46" stop-color="#c7ceea"/>
            <stop offset="0.75" stop-color="#bbe0de"/>
            <stop offset="1" stop-color="#b5ead7"/>
        </linearGradient>
    </defs>
    <path id="f603d266-c3e6-4445-a37d-0c78b4379c81" data-name="Logo Pfad" class="a5f0b606-fcbd-47d7-8b3a-04b81844ceb5"
          d="M263.43,203.05l-5.27,32.14m-237-30.83,19.68,18.56M168.14,40,40.78,222.72a.13.13,0,0,0,.09.2L258,235.37a.13.13,0,0,0,.13-.18L168.36,40.06A.13.13,0,0,0,168.14,40ZM141.9,22.37,21.05,204.1a.17.17,0,0,0,.14.26L263.3,203.3a.16.16,0,0,0,.13-.25L142.18,22.37A.18.18,0,0,0,141.9,22.37Zm.15-.2,26.22,17.69"/>
</svg>
