<svg id="a0b199e9-6da2-46f8-8ebb-dd71d98aec02" data-name="Ebene 1" xmlns="http://www.w3.org/2000/svg"
     viewBox="0 0 337.21 337.21">
    <defs>
        <style>
            .a10ae2a7-444f-4254-a900-9c11d0ab8904,.b267ac74-1357-45cc-aa87-7cd83fecb121{fill:none;}.f7705130-cc59-414a-bb85-8537518d623b{clip-path:url(#a837ef03-6a65-4834-a0ae-07625eb90654);}.f54c38d1-bc6a-4aa5-8958-7189a4ae180b{clip-path:url(#b4582fdc-eb91-41a0-add5-069bf284b444);}.b267ac74-1357-45cc-aa87-7cd83fecb121{stroke:#fff;stroke-miterlimit:10;stroke-width:5px;}.be83b9b2-08bd-401d-b1b1-ba9de8e1e578{clip-path:url(#a433b5fa-a934-4b9f-9502-df7b281a6109);}.b7a9375a-f86a-40c6-b6d3-399c93347273{clip-path:url(#fba42c6c-43e1-4c2e-bd9b-1b9b8b9554b5);}.a7db60ef-bef9-48d1-bb7b-04bd1dc72af8,.b18d31a8-c3f3-4259-99bf-648b06fee602{font-size:62.49px;fill:#fff;}.b18d31a8-c3f3-4259-99bf-648b06fee602{font-family:Roboto-Regular,
            Roboto;}.e8c9e044-ce23-43de-95f1-8615ad27c8d9{letter-spacing:0.01em;}.ac82161d-9a49-4543-812c-bd7339e86130{letter-spacing:0.01em;}.ac60d1b6-fa98-4560-96d5-a7c4cc7996d6{letter-spacing:0.01em;}.bb80cc05-49fd-49f5-9aa5-60a29aecbb1a{letter-spacing:-0.01em;}.a7db60ef-bef9-48d1-bb7b-04bd1dc72af8{font-family:Roboto-Light,
            Roboto;font-weight:300;}.ff82efb9-d52a-4b4b-81c7-7e96a2d6f50e{letter-spacing:0em;}.ff7da4c8-31ad-4567-8562-0a521d197e84{letter-spacing:0.01em;}.f74aa262-a361-4ee8-9b4b-85fbd8cdb045{letter-spacing:0em;}.f5371299-275e-47d2-89b4-9377badce045{letter-spacing:0.01em;}
        </style>
        <clipPath id="a837ef03-6a65-4834-a0ae-07625eb90654">
            <rect class="a10ae2a7-444f-4254-a900-9c11d0ab8904" x="11.53" y="195.88" width="318.42" height="124.99"/>
        </clipPath>
        <clipPath id="b4582fdc-eb91-41a0-add5-069bf284b444">
            <rect class="a10ae2a7-444f-4254-a900-9c11d0ab8904" x="-45.68" y="35.75" width="454.07" height="260.21"/>
        </clipPath>
        <clipPath id="a433b5fa-a934-4b9f-9502-df7b281a6109">
            <rect class="a10ae2a7-444f-4254-a900-9c11d0ab8904" x="56.66" y="16.34" width="230.14" height="124.99"/>
        </clipPath>
        <clipPath id="fba42c6c-43e1-4c2e-bd9b-1b9b8b9554b5">
            <rect class="a10ae2a7-444f-4254-a900-9c11d0ab8904" x="-47.17" y="35.75" width="454.07" height="260.21"/>
        </clipPath>
    </defs>
    <g class="f7705130-cc59-414a-bb85-8537518d623b">
        <g class="f54c38d1-bc6a-4aa5-8958-7189a4ae180b">
            <path class="b267ac74-1357-45cc-aa87-7cd83fecb121"
                  d="M315.36,255.75l-7,38.74M22.7,257l23.06,22.84M199.58,58.66,45.82,279.2a.15.15,0,0,0,.12.24l262.16,15a.15.15,0,0,0,.15-.21L199.84,58.69A.15.15,0,0,0,199.58,58.66ZM167.9,37.33,22,256.73a.19.19,0,0,0,.16.3l292.29-1.27a.2.2,0,0,0,.16-.31L168.23,37.33A.2.2,0,0,0,167.9,37.33Zm.17-.25,31.66,21.37"/>
        </g>
    </g>
    <g class="be83b9b2-08bd-401d-b1b1-ba9de8e1e578">
        <g class="b7a9375a-f86a-40c6-b6d3-399c93347273">
            <path class="b267ac74-1357-45cc-aa87-7cd83fecb121"
                  d="M198.09,58.66,44.33,279.2a.15.15,0,0,0,.12.24l262.16,15a.15.15,0,0,0,.15-.21L198.35,58.69A.15.15,0,0,0,198.09,58.66ZM313.87,255.75l-7,38.74M21.22,257l23.05,22.84M166.41,37.33,20.52,256.73a.19.19,0,0,0,.16.3L313,255.76a.2.2,0,0,0,.16-.31L166.74,37.33A.2.2,0,0,0,166.41,37.33Zm.18-.25,31.65,21.37"/>
        </g>
    </g>
    <text class="b18d31a8-c3f3-4259-99bf-648b06fee602" transform="translate(4.12 190.09)">
        <tspan class="e8c9e044-ce23-43de-95f1-8615ad27c8d9">P</tspan>
        <tspan class="ac82161d-9a49-4543-812c-bd7339e86130" x="40.05" y="0">h</tspan>
        <tspan class="ac60d1b6-fa98-4560-96d5-a7c4cc7996d6" x="75.22" y="0">o</tspan>
        <tspan class="bb80cc05-49fd-49f5-9aa5-60a29aecbb1a" x="111.42" y="0">t</tspan>
        <tspan x="131.46" y="0">o</tspan>
    </text>
    <text class="a7db60ef-bef9-48d1-bb7b-04bd1dc72af8" transform="translate(171.8 190.09)">
        <tspan class="ff82efb9-d52a-4b4b-81c7-7e96a2d6f50e">P</tspan>
        <tspan class="ff7da4c8-31ad-4567-8562-0a521d197e84" x="38.67" y="0">r</tspan>
        <tspan class="f74aa262-a361-4ee8-9b4b-85fbd8cdb045" x="60.19" y="0">i</tspan>
        <tspan class="f5371299-275e-47d2-89b4-9377badce045" x="73.95" y="0">s</tspan>
        <tspan x="105.9" y="0">m</tspan>
    </text>
</svg>