<svg id="b894f8c0-b768-4f8f-adad-d9f0073afaed" data-name="Logo" xmlns="http://www.w3.org/2000/svg" viewBox="0 0 283.46 283.46"><defs><style>.e6c0972d-33c0-4ed2-b3b0-3d9353ca7afd{fill:none;stroke:#fff;stroke-miterlimit:10;stroke-width:6px;}</style></defs><path id="e627ef3f-d185-4eef-8288-9b431e7800af" data-name="Logo Pfad" class="e6c0972d-33c0-4ed2-b3b0-3d9353ca7afd" d="M263.24,206.16l-5.8,32.09m-236.61-31,19.09,18.91M167.34,42.91,40,225.58a.13.13,0,0,0,.1.2l217.16,12.45a.12.12,0,0,0,.12-.17L167.55,42.93A.12.12,0,0,0,167.34,42.91ZM141.1,25.24,20.25,207a.16.16,0,0,0,.14.25l242.1-1.05a.17.17,0,0,0,.14-.26L141.37,25.24A.16.16,0,0,0,141.1,25.24Zm.14-.21,26.22,17.7"/></svg>