<?xml version="1.0" encoding="UTF-8" standalone="no"?>
<svg
   id="f394fb39-4024-46e8-9a68-3f5e53f52bfd"
   data-name="Ebene 1"
   viewBox="0 0 223.99999 223.99999"
   version="1.1"
   sodipodi:docname="logo-light-square.svg"
   width="224"
   height="224"
   inkscape:version="1.1.1 (3bf5ae0, 2021-09-20)"
   xmlns:inkscape="http://www.inkscape.org/namespaces/inkscape"
   xmlns:sodipodi="http://sodipodi.sourceforge.net/DTD/sodipodi-0.dtd"
   xmlns="http://www.w3.org/2000/svg"
   xmlns:svg="http://www.w3.org/2000/svg">
  <sodipodi:namedview
     id="namedview183"
     pagecolor="#ffffff"
     bordercolor="#666666"
     borderopacity="1.0"
     inkscape:pageshadow="2"
     inkscape:pageopacity="0.0"
     inkscape:pagecheckerboard="0"
     showgrid="false"
     fit-margin-top="0"
     fit-margin-left="0"
     fit-margin-right="0"
     fit-margin-bottom="0"
     inkscape:zoom="3.1543575"
     inkscape:cx="15.058534"
     inkscape:cy="112.0672"
     inkscape:window-width="2560"
     inkscape:window-height="1384"
     inkscape:window-x="0"
     inkscape:window-y="28"
     inkscape:window-maximized="1"
     inkscape:current-layer="f394fb39-4024-46e8-9a68-3f5e53f52bfd" />
  <defs
     id="defs177">
    <style
       id="style170">
            .a8bd947d-a1f8-4a14-8069-c9663505e4b1{fill:url(#b905e2c4-4772-4914-b70f-44b4d19aca4b);}.a4ee1f07-8fee-4200-835a-e030a32bca90{fill:none;stroke:#1d1d1b;stroke-miterlimit:10;stroke-width:5px;}
        </style>
    <linearGradient
       id="b905e2c4-4772-4914-b70f-44b4d19aca4b"
       x1="26.379999"
       y1="231.72"
       x2="231.72"
       y2="26.379999"
       gradientUnits="userSpaceOnUse"
       gradientTransform="translate(-26.379999,-26.379999)">
      <stop
         offset="0"
         stop-color="#9afbfe"
         id="stop172" />
      <stop
         offset="0.8"
         stop-color="#ffb3e0"
         id="stop174" />
    </linearGradient>
  </defs>
  <rect
     class="a8bd947d-a1f8-4a14-8069-c9663505e4b1"
     x="0"
     y="0"
     width="224"
     height="224"
     id="rect179"
     style="fill:url(#b905e2c4-4772-4914-b70f-44b4d19aca4b)" />
  <path
     id="bfa29dbe-bd65-4058-95bb-bdb844b1d3b1"
     class="a4ee1f07-8fee-4200-835a-e030a32bca90"
     d="m 203.19,155.51 -4,24.19 m -178.279999,-23.2 14.81,14 M 131.48,32.850001 35.620001,170.31 a 0.09,0.09 0 0 0 0.07,0.15 L 199.1,179.83 a 0.09,0.09 0 0 0 0.09,-0.13 L 131.62,32.870001 a 0.1,0.1 0 0 0 -0.14,-0.02 z m -19.74,-13.29 L 20.800001,156.31 a 0.13,0.13 0 0 0 0.11,0.19 L 203.09,155.7 a 0.12,0.12 0 0 0 0.1,-0.19 L 111.95,19.560001 a 0.12,0.12 0 0 0 -0.21,0 z m 0.11,-0.16 19.77,13.32" />
</svg>
